#Comment line ignore any data following # character 
#Hierarchical Translation and Rotation (.htr) file 
[Header]	
#Header keywords are followed by a single value 
FileType HTR		#Single word string
DataType HTRS		#Translation followed by rotation and scale data
FileVersion 1		#integer
NumSegments 23		#integer
NumFrames 6		#integer
DataFrameRate 30		#integer, data frame rate in this file
EulerRotationOrder ZYX
CalibrationUnits mm
RotationUnits Degrees
GlobalAxisofGravity Y
BoneLengthAxis Y
ScaleFactor 1.00
[SegmentNames&Hierarchy]
#CHILD	PARENT
MASTER GLOBAL
weapon MASTER
arm_lock_bottom_part1 weapon
arm_lock_bottom_part2 weapon
arm_lock_bottom_part3 weapon
arm_lock_bottom_part4 weapon
arm_lock_top_part1 weapon
arm_lock_top_part2 weapon
arm_lock_top_part3 weapon
front_lower_left_part1 weapon
front_lower_right_part1 weapon
front_top_left_part weapon
front_top_right_part1 weapon
scope_part1 weapon
scope_part2 weapon
front_lower_left_part2 front_lower_left_part1
front_lower_left_part3 front_lower_left_part2
front_lower_right_part2 front_lower_right_part1
front_lower_right_part3 front_lower_right_part2
front_top_left_part2 front_top_left_part
front_top_left_part3 front_top_left_part2
front_top_right_part2 front_top_right_part1
front_top_right_part3 front_top_right_part2
[BasePosition]
#SegmentName Tx, Ty, Tz, Rx, Ry, Rz, BoneLength
MASTER 0.000000 0.000000 0.000000 -90.000000 0.000000 0.000000 10.000000 
weapon 0.000000 0.000000 0.000000 0.000000 0.000000 0.000000 10.000000 
arm_lock_bottom_part1 0.000000 0.000000 0.000000 0.000000 0.000000 0.000000 10.000000 
arm_lock_bottom_part2 0.000000 0.000000 0.000000 0.000000 0.000000 0.000000 10.000000 
arm_lock_bottom_part3 0.000000 0.000000 0.000000 0.000000 0.000000 0.000000 10.000000 
arm_lock_bottom_part4 0.000000 0.000000 0.000000 0.000000 0.000000 0.000000 10.000000 
arm_lock_top_part1 0.000000 0.000000 0.000000 0.000000 0.000000 0.000000 10.000000 
arm_lock_top_part2 0.000000 0.000000 0.000000 0.000000 0.000000 0.000000 10.000000 
arm_lock_top_part3 0.000000 0.000000 0.000000 0.000000 0.000000 0.000000 10.000000 
front_lower_left_part1 0.000000 0.000000 0.000000 0.000000 0.000000 0.000000 10.000000 
front_lower_right_part1 0.000000 0.000000 0.000000 0.000000 0.000000 0.000000 10.000000 
front_top_left_part 0.000000 0.000000 0.000000 0.000000 0.000000 0.000000 10.000000 
front_top_right_part1 0.000000 0.000000 0.000000 0.000000 0.000000 0.000000 10.000000 
scope_part1 0.000000 0.000000 0.000000 0.000000 0.000000 0.000000 10.000000 
scope_part2 0.000000 0.000000 0.000000 0.000000 0.000000 0.000000 10.000000 
front_lower_left_part2 0.000000 0.000000 0.000000 0.000000 0.000000 0.000000 10.000000 
front_lower_left_part3 0.000000 0.000000 0.000000 0.000000 0.000000 0.000000 10.000000 
front_lower_right_part2 0.000000 0.000000 0.000000 0.000000 0.000000 0.000000 10.000000 
front_lower_right_part3 0.000000 0.000000 0.000000 0.000000 0.000000 0.000000 10.000000 
front_top_left_part2 0.000000 0.000000 0.000000 0.000000 0.000000 0.000000 10.000000 
front_top_left_part3 0.000000 0.000000 0.000000 0.000000 0.000000 0.000000 10.000000 
front_top_right_part2 0.000000 0.000000 0.000000 0.000000 0.000000 0.000000 10.000000 
front_top_right_part3 0.000000 0.000000 0.000000 0.000000 0.000000 0.000000 10.000000 
#Beginning of Data. Separated by tabs
#Fr	Tx	Ty	Tz	Rx	Ry	Rz	SF
[MASTER]
1 0.000000 -0.000019 0.000002 0.002458 -0.000000 0.000000 0.000019
2 0.000000 -0.000019 0.000002 0.002458 -0.000000 0.000000 0.000019
3 0.000000 -0.000019 0.000002 0.002458 -0.000000 0.000000 0.000019
4 0.000000 -0.000019 0.000002 0.002458 -0.000000 0.000000 0.000019
5 0.000000 -0.000019 0.000002 0.002458 -0.000000 0.000000 0.000019
6 0.000000 -0.000019 0.000002 0.002458 -0.000000 0.000000 0.000019
[weapon]
1 10.182457 -168.977844 -13.084106 -0.002473 -0.000000 -0.000020 169.789246
2 10.182457 -168.977844 -13.084106 -0.002473 -0.000000 -0.000020 169.789246
3 10.182457 -168.977844 -13.084106 -0.002473 -0.000000 -0.000020 169.789246
4 10.182457 -168.977844 -13.084106 -0.002473 -0.000000 -0.000020 169.789246
5 10.182457 -168.977844 -13.084106 -0.002473 -0.000000 -0.000020 169.789246
6 10.182457 -168.977844 -13.084106 -0.002473 -0.000000 -0.000020 169.789246
[arm_lock_bottom_part1]
1 -48.820034 98.566185 -83.498901 179.999985 0.000004 9.388626 138.096909
2 -48.820034 98.566185 -83.498901 179.999985 0.000004 9.388626 138.096909
3 -48.820034 98.566185 -83.498901 179.999985 0.000004 9.388626 138.096909
4 -48.820034 98.566185 -83.498901 179.999985 0.000004 9.388626 138.096909
5 -48.820034 98.566185 -83.498901 179.999985 0.000004 9.388626 138.096909
6 -48.820034 98.566185 -83.498901 179.999985 0.000004 9.388626 138.096909
[arm_lock_bottom_part2]
1 -49.022778 58.781982 -78.526520 179.999985 0.000004 6.576753 109.658417
2 -49.022778 58.781982 -78.526520 179.999985 0.000004 6.576753 109.658417
3 -49.022778 58.781982 -78.526520 179.999985 0.000004 6.576753 109.658417
4 -49.022778 58.781982 -78.526520 179.999985 0.000004 6.576753 109.658417
5 -49.022778 58.781982 -78.526520 179.999985 0.000004 6.576753 109.658417
6 -49.022778 58.781982 -78.526520 179.999985 0.000004 6.576753 109.658417
[arm_lock_bottom_part3]
1 -51.266434 -16.798199 -66.920387 179.999985 0.000004 4.326148 85.957924
2 -51.266434 -16.798199 -66.920387 179.999985 0.000004 4.326148 85.957924
3 -51.266434 -16.798199 -66.920387 179.999985 0.000004 4.326148 85.957924
4 -51.266434 -16.798199 -66.920387 179.999985 0.000004 4.326148 85.957924
5 -51.266434 -16.798199 -66.920387 179.999985 0.000004 4.326148 85.957924
6 -51.266434 -16.798199 -66.920387 179.999985 0.000004 4.326148 85.957924
[arm_lock_bottom_part4]
1 -40.078083 -93.503029 -59.330029 179.999985 0.000004 1.322134 117.767235
2 -40.078083 -93.503029 -59.330029 179.999985 0.000004 1.322134 117.767235
3 -40.078083 -93.503029 -59.330029 179.999985 0.000004 1.322134 117.767235
4 -40.078083 -93.503029 -59.330029 179.999985 0.000004 1.322134 117.767235
5 -40.078083 -93.503029 -59.330029 179.999985 0.000004 1.322134 117.767235
6 -40.078083 -93.503029 -59.330029 179.999985 0.000004 1.322134 117.767235
[arm_lock_top_part1]
1 -47.532562 61.554470 78.379471 0.000000 -0.000000 -9.999999 110.415756
2 -47.532562 61.554470 78.379471 0.000000 -0.000000 -9.999999 110.415756
3 -47.532562 61.554470 78.379471 0.000000 -0.000000 -9.999999 110.415756
4 -47.532562 61.554470 78.379471 0.000000 -0.000000 -9.999999 110.415756
5 -47.532562 61.554470 78.379471 0.000000 -0.000000 -9.999999 110.415756
6 -47.532562 61.554470 78.379471 0.000000 -0.000000 -9.999999 110.415756
[arm_lock_top_part2]
1 -45.622692 13.709888 63.393517 0.000000 -0.000000 -7.722126 79.297722
2 -45.622692 13.709888 63.393517 0.000000 -0.000000 -7.722126 79.297722
3 -45.622692 13.709888 63.393517 0.000000 -0.000000 -7.722126 79.297722
4 -45.622692 13.709888 63.393517 0.000000 -0.000000 -7.722126 79.297722
5 -45.622692 13.709888 63.393517 0.000000 -0.000000 -7.722126 79.297722
6 -45.622692 13.709888 63.393517 0.000000 -0.000000 -7.722126 79.297722
[arm_lock_top_part3]
1 -43.788521 -73.747162 72.061607 0.000000 -0.000000 -4.533087 112.022110
2 -43.788521 -73.747162 72.061607 0.000000 -0.000000 -4.533087 112.022110
3 -43.788521 -73.747162 72.061607 0.000000 -0.000000 -4.533087 112.022110
4 -43.788521 -73.747162 72.061607 0.000000 -0.000000 -4.533087 112.022110
5 -43.788521 -73.747162 72.061607 0.000000 -0.000000 -4.533087 112.022110
6 -43.788521 -73.747162 72.061607 0.000000 -0.000000 -4.533087 112.022110
[front_lower_left_part1]
1 -46.798580 475.070923 -43.538815 0.001660 0.001660 0.001660 479.351746
2 -46.798580 475.070923 -43.538815 -1.868637 0.001808 3.345832 479.351746
3 -46.798580 475.070923 -43.538815 -6.328511 -0.001886 11.333433 479.351746
4 -46.798580 475.070923 -43.538815 -11.649893 0.000420 20.862144 479.351746
5 -46.798580 475.070923 -43.538815 -16.111551 0.000537 28.846594 479.351746
6 -46.798580 475.070923 -43.538815 -17.979834 0.000980 32.194031 479.351746
[front_lower_right_part1]
1 26.433397 475.070923 -43.538826 0.001660 0.001660 0.001660 477.793640
2 26.433397 475.070923 -43.538826 -1.784400 0.001912 -2.842776 477.793640
3 26.433397 475.070923 -43.538826 -6.041285 -0.000095 -9.617600 477.793640
4 26.433397 475.070923 -43.538826 -11.122400 -0.000935 -17.703833 477.793640
5 26.433397 475.070923 -43.538826 -15.383385 -0.000397 -24.478189 477.793640
6 26.433397 475.070923 -43.538826 -17.168270 -0.001346 -27.315351 477.793640
[front_top_left_part]
1 -47.897255 494.788696 7.031011 -0.000000 0.000003 -0.000001 497.151367
2 -47.897255 494.788696 7.031011 -0.000000 0.000003 -0.000001 497.151367
3 -47.897255 494.788696 7.031011 -0.000000 0.000003 -0.000001 497.151367
4 -47.897255 494.788696 7.031011 -0.000000 0.000003 -0.000001 497.151367
5 -47.897255 494.788696 7.031011 -0.000000 0.000003 -0.000001 497.151367
6 -47.897255 494.788696 7.031011 -0.000000 0.000003 -0.000001 497.151367
[front_top_right_part1]
1 27.532097 494.788727 7.031008 0.000000 -0.000000 -0.000000 495.604004
2 27.532097 494.788727 7.031008 0.000000 -0.000000 -0.000000 495.604004
3 27.532097 494.788727 7.031008 0.000000 -0.000000 -0.000000 495.604004
4 27.532097 494.788727 7.031008 0.000000 -0.000000 -0.000000 495.604004
5 27.532097 494.788727 7.031008 0.000000 -0.000000 -0.000000 495.604004
6 27.532097 494.788727 7.031008 0.000000 -0.000000 -0.000000 495.604004
[scope_part1]
1 -10.754304 87.338959 156.453140 -4.905956 0.001729 0.001587 179.503021
2 -10.754304 87.338959 156.453140 -4.907234 -1.162287 0.100972 179.503021
3 -10.754304 87.338959 156.453140 -4.916514 -4.063212 0.349539 179.503021
4 -10.754304 87.338959 156.453140 -4.951674 -7.838325 0.676221 179.503021
5 -10.754304 87.338959 156.453140 -5.009195 -11.613178 1.008979 179.503021
6 -10.754304 87.338959 156.453140 -5.067933 -14.516966 1.271386 179.503021
[scope_part2]
1 -10.754300 82.597374 156.860001 -4.905956 0.001729 0.001587 177.603607
2 -10.754300 82.597374 156.860001 -4.910837 2.285399 -0.195378 177.603607
3 -10.754300 82.597374 156.860001 -4.951524 7.997944 -0.692067 177.603607
4 -10.754300 82.597374 156.860001 -5.087733 15.425935 -1.356164 177.603607
5 -10.754300 82.597374 156.860001 -5.323374 22.851784 -2.069972 177.603607
6 -10.754300 82.597374 156.860001 -5.587450 28.564995 -2.678614 177.603607
[front_lower_left_part2]
1 -55.193569 141.618454 32.268322 0.001660 0.001660 0.001660 155.381348
2 -55.193569 141.618454 32.268322 0.001660 0.001660 0.001660 155.381348
3 -55.193569 141.618454 32.268322 0.001660 0.001660 0.001660 155.381348
4 -55.193569 141.618454 32.268322 0.001660 0.001660 0.001660 155.381348
5 -55.193569 141.618454 32.268322 0.001660 0.001660 0.001660 155.381348
6 -55.193569 141.618454 32.268322 0.001716 0.001601 3.983738 155.381348
[front_lower_left_part3]
1 -10.943815 108.509422 -11.124855 33.348259 -16.022978 -13.460472 109.625839
2 -10.943815 108.509422 -11.124855 33.348263 -16.022980 -13.460472 109.625839
3 -10.943815 108.509422 -11.124855 33.348251 -16.022978 -13.460469 109.625839
4 -10.943815 108.509422 -11.124855 33.348259 -16.022978 -13.460472 109.625839
5 -10.943815 108.509422 -11.124855 33.348267 -16.022980 -13.460473 109.625839
6 -10.943815 108.509422 -11.124855 33.348259 -16.022978 -13.460472 109.625839
[front_lower_right_part2]
1 55.193596 141.618317 32.268330 0.001660 0.001660 0.001660 155.381226
2 55.193596 141.618317 32.268330 0.001660 0.001660 0.001660 155.381226
3 55.193596 141.618317 32.268330 0.001660 0.001660 0.001660 155.381226
4 55.193596 141.618317 32.268330 0.001660 0.001660 0.001660 155.381226
5 55.193596 141.618317 32.268330 0.001660 0.001660 0.001660 155.381226
6 55.193596 141.618317 32.268330 0.001587 0.001730 -4.935661 155.381226
[front_lower_right_part3]
1 10.943837 108.509453 -11.124846 33.349384 16.025185 13.464869 109.625862
2 10.943837 108.509453 -11.124846 33.349384 16.025185 13.464869 109.625862
3 10.943837 108.509453 -11.124846 33.349384 16.025185 13.464869 109.625862
4 10.943837 108.509453 -11.124846 33.349384 16.025185 13.464869 109.625862
5 10.943837 108.509453 -11.124846 33.349384 16.025185 13.464869 109.625862
6 10.943837 108.509453 -11.124846 33.349384 16.025185 13.464869 109.625862
[front_top_left_part2]
1 -42.569122 137.487869 54.839325 0.001660 0.001660 0.001660 154.020767
2 -47.330948 137.477722 55.101009 1.025832 0.012507 2.103889 155.487823
3 -58.686085 137.453384 55.725250 3.468616 0.043812 7.112809 159.507965
4 -72.238937 137.424316 56.470028 6.389650 0.109972 13.098346 165.205231
5 -83.594070 137.400040 57.094269 8.833586 0.213570 18.109514 170.664871
6 -88.355881 137.389816 57.355957 9.859332 0.362888 20.211830 173.125473
[front_top_left_part3]
1 -28.216480 149.656799 49.959614 -25.846500 -3.899320 -66.531914 160.278793
2 -28.216480 149.656799 49.959614 -25.846500 -3.899320 -66.531914 160.278793
3 -28.216480 149.656799 49.959614 -25.846500 -3.899320 -66.531914 160.278793
4 -28.216480 149.656799 49.959614 -25.955009 -3.042325 -64.759544 160.278793
5 -28.216480 149.656799 49.959614 -26.097853 -1.144016 -60.869717 160.278793
6 -28.216480 149.656799 49.959614 -26.111574 0.759602 -56.985035 160.278793
[front_top_right_part2]
1 42.569122 137.488022 54.839325 0.001660 0.001660 0.001660 154.020889
2 46.691589 137.496872 54.612728 0.820121 0.127893 -2.430946 155.138794
3 56.522217 137.517929 54.072266 2.782507 0.429850 -8.222136 158.207932
4 68.255463 137.543030 53.427429 5.137323 0.789583 -15.136788 162.577316
5 78.085938 137.564072 52.887115 7.142430 1.095850 -20.929874 166.788300
6 82.208443 137.572922 52.660522 8.053999 1.223762 -23.359158 168.694016
[front_top_right_part3]
1 28.216452 149.656952 49.959507 -25.844738 3.901540 66.529228 160.278885
2 28.216452 149.656952 49.959507 -25.844738 3.901540 66.529228 160.278885
3 28.216452 149.656952 49.959507 -25.844738 3.901540 66.529228 160.278885
4 28.216452 149.656952 49.959507 -25.950806 3.068517 64.811813 160.278885
5 28.216452 149.656952 49.959507 -26.092905 1.227369 61.040234 160.278885
6 28.216452 149.656952 49.959507 -26.113569 -0.619132 57.273857 160.278885
